<svg width="256" height="256" viewBox="0 0 256 256" fill="none" xmlns="http://www.w3.org/2000/svg">
  <defs>
    <linearGradient id="shell" x1="38" y1="24" x2="218" y2="236" gradientUnits="userSpaceOnUse">
      <stop offset="0" stop-color="#79E5FF"/>
      <stop offset="0.42" stop-color="#3088FF"/>
      <stop offset="0.73" stop-color="#295BCE"/>
      <stop offset="1" stop-color="#12234C"/>
    </linearGradient>
    <radialGradient id="warmGlow" cx="0" cy="0" r="1" gradientUnits="userSpaceOnUse" gradientTransform="translate(190 62) rotate(132) scale(156)">
      <stop offset="0" stop-color="#FFE9A7" stop-opacity="0.9"/>
      <stop offset="0.38" stop-color="#5DE7D2" stop-opacity="0.5"/>
      <stop offset="1" stop-color="#5DE7D2" stop-opacity="0"/>
    </radialGradient>
    <linearGradient id="glass" x1="74" y1="57" x2="185" y2="192" gradientUnits="userSpaceOnUse">
      <stop offset="0" stop-color="#FFFFFF" stop-opacity="0.92"/>
      <stop offset="0.33" stop-color="#E7FBFF" stop-opacity="0.58"/>
      <stop offset="0.68" stop-color="#85C9FF" stop-opacity="0.25"/>
      <stop offset="1" stop-color="#FFFFFF" stop-opacity="0.48"/>
    </linearGradient>
    <linearGradient id="chipStroke" x1="70" y1="66" x2="180" y2="187" gradientUnits="userSpaceOnUse">
      <stop offset="0" stop-color="#FFFFFF" stop-opacity="0.95"/>
      <stop offset="0.53" stop-color="#A8F4FF" stop-opacity="0.42"/>
      <stop offset="1" stop-color="#FFFFFF" stop-opacity="0.7"/>
    </linearGradient>
    <linearGradient id="trace" x1="84" y1="91" x2="172" y2="164" gradientUnits="userSpaceOnUse">
      <stop offset="0" stop-color="#FFFFFF"/>
      <stop offset="0.52" stop-color="#BFF7FF"/>
      <stop offset="1" stop-color="#FFE8A4"/>
    </linearGradient>
    <filter id="softShadow" x="-30" y="-30" width="316" height="316" color-interpolation-filters="sRGB">
      <feDropShadow dx="0" dy="18" stdDeviation="18" flood-color="#061A39" flood-opacity="0.42"/>
      <feDropShadow dx="0" dy="2" stdDeviation="4" flood-color="#FFFFFF" flood-opacity="0.2"/>
    </filter>
    <filter id="chipShadow" x="35" y="35" width="186" height="186" color-interpolation-filters="sRGB">
      <feDropShadow dx="0" dy="12" stdDeviation="12" flood-color="#0A254E" flood-opacity="0.32"/>
      <feDropShadow dx="0" dy="-2" stdDeviation="3" flood-color="#FFFFFF" flood-opacity="0.34"/>
    </filter>
  </defs>
  <g filter="url(#softShadow)">
    <rect x="14" y="14" width="228" height="228" rx="56" fill="url(#shell)"/>
    <rect x="14" y="14" width="228" height="228" rx="56" fill="url(#warmGlow)"/>
    <rect x="20" y="20" width="216" height="216" rx="50" stroke="#FFFFFF" stroke-opacity="0.42" stroke-width="2"/>
    <path d="M45 43C74 25 121 23 154 35C105 39 63 67 39 112C34 84 34 58 45 43Z" fill="#FFFFFF" fill-opacity="0.32"/>
    <path d="M213 156C210 199 177 224 126 228C166 211 192 184 205 143C211 141 214 146 213 156Z" fill="#001B3F" fill-opacity="0.18"/>
  </g>
  <g filter="url(#chipShadow)">
    <rect x="67" y="67" width="122" height="122" rx="30" fill="url(#glass)"/>
    <rect x="67" y="67" width="122" height="122" rx="30" stroke="url(#chipStroke)" stroke-width="4"/>
    <path d="M82 82C101 70 143 70 172 84C137 84 104 94 80 118C76 101 76 89 82 82Z" fill="#FFFFFF" fill-opacity="0.38"/>
    <g opacity="0.9">
      <rect x="84" y="47" width="13" height="28" rx="6.5" fill="#F4D56D"/>
      <rect x="116" y="43" width="13" height="31" rx="6.5" fill="#DFFAFF"/>
      <rect x="148" y="47" width="13" height="28" rx="6.5" fill="#F4D56D"/>
      <rect x="84" y="181" width="13" height="28" rx="6.5" fill="#DFFAFF"/>
      <rect x="116" y="182" width="13" height="31" rx="6.5" fill="#F4D56D"/>
      <rect x="148" y="181" width="13" height="28" rx="6.5" fill="#DFFAFF"/>
      <rect x="47" y="84" width="28" height="13" rx="6.5" fill="#DFFAFF"/>
      <rect x="43" y="116" width="31" height="13" rx="6.5" fill="#F4D56D"/>
      <rect x="47" y="148" width="28" height="13" rx="6.5" fill="#DFFAFF"/>
      <rect x="181" y="84" width="28" height="13" rx="6.5" fill="#F4D56D"/>
      <rect x="182" y="116" width="31" height="13" rx="6.5" fill="#DFFAFF"/>
      <rect x="181" y="148" width="28" height="13" rx="6.5" fill="#F4D56D"/>
    </g>
    <path d="M91 127H110C117.5 127 121 121 121 114V99" stroke="url(#trace)" stroke-width="8" stroke-linecap="round" stroke-linejoin="round"/>
    <path d="M166 127H146C138.5 127 135 133 135 140V157" stroke="url(#trace)" stroke-width="8" stroke-linecap="round" stroke-linejoin="round"/>
    <circle cx="91" cy="127" r="8.5" fill="#FFFFFF"/>
    <circle cx="121" cy="99" r="8.5" fill="#FFE79D"/>
    <circle cx="166" cy="127" r="8.5" fill="#FFE79D"/>
    <circle cx="135" cy="157" r="8.5" fill="#FFFFFF"/>
    <path d="M118 127.5C128.6 124 134.4 118.1 137.9 107.6C141.4 118.1 147.3 124 157.8 127.5C147.3 131 141.4 136.9 137.9 147.4C134.4 136.9 128.6 131 118 127.5Z" fill="#FFFFFF"/>
    <path d="M101 101.5L107 99L109.5 93L112 99L118 101.5L112 104L109.5 110L107 104L101 101.5Z" fill="#FFFFFF" fill-opacity="0.8"/>
  </g>
</svg>
